<svg width="50" height="50" viewBox="0 0 50 50" fill="none" xmlns="http://www.w3.org/2000/svg">
<path d="M43.6872 33.329H14.2322L14.8637 37.0322H41.6641C42.9816 37.0315 44.2636 37.4873 45.3171 38.331C46.3706 39.1746 47.1387 40.3605 47.5057 41.7101C47.8726 43.0597 47.8186 44.4998 47.3517 45.8138C46.8849 47.1278 46.0304 48.2444 44.9171 48.9956C43.8037 49.7468 42.4916 50.0919 41.1785 49.979C39.8653 49.866 38.6221 49.3011 37.636 48.3693C36.6499 47.4375 35.9743 46.1892 35.7109 44.8124C35.4475 43.4356 35.6105 42.0048 36.1755 40.7354H21.1126C21.6002 41.8291 21.7907 43.0465 21.6627 44.2498C21.5346 45.453 21.0931 46.5939 20.3881 47.5431C19.6831 48.4924 18.7429 49.212 17.674 49.6203C16.6051 50.0287 15.4504 50.1095 14.3407 49.8536C13.2309 49.5977 12.2106 49.0153 11.3954 48.1725C10.5802 47.3297 10.0026 46.2601 9.72824 45.085C9.45385 43.9099 9.49361 42.6764 9.843 41.5241C10.1924 40.3719 10.8374 39.3472 11.705 38.566C11.5858 38.288 11.4992 37.9953 11.4474 37.6946L5.65308 3.70322H1.73601C1.27559 3.70322 0.834028 3.50814 0.508464 3.1609C0.1829 2.81365 0 2.34269 0 1.85161C0 1.36053 0.1829 0.889569 0.508464 0.542324C0.834028 0.19508 1.27559 4.32656e-07 1.73601 4.32656e-07H5.65287C6.46611 -0.000418775 7.25366 0.303807 7.87804 0.859571C8.50242 1.41534 8.92397 2.18734 9.06911 3.04081L10.1289 9.25805H46.528C47.0365 9.25805 47.5389 9.3772 47.9995 9.60709C48.4601 9.83698 48.8678 10.172 49.1936 10.5884C49.5195 11.0049 49.7556 11.4926 49.8852 12.0171C50.0149 12.5415 50.035 13.09 49.944 13.6237L47.1035 30.2882C46.9583 31.1417 46.5367 31.9137 45.9123 32.4695C45.2879 33.0253 44.5003 33.3295 43.687 33.329H43.6872Z" fill="white"/>
</svg>
