<svg width="26" height="26" viewBox="0 0 26 26" fill="none" xmlns="http://www.w3.org/2000/svg">
<path d="M13 0.5C6.22375 0.5 0.5 6.225 0.5 13C0.5 19.775 6.22375 25.5 13 25.5C19.7763 25.5 25.5 19.775 25.5 13C25.5 6.225 19.7763 0.5 13 0.5ZM13 16.75C14.24 16.75 15.3125 16.4187 15.8663 15.865L17.6337 17.6337C16.2262 19.04 14.1263 19.25 13 19.25C9.55375 19.25 6.75 16.4462 6.75 13C6.75 9.55375 9.55375 6.75 13 6.75C14.1263 6.75 16.2275 6.96 17.6337 8.36625L15.8663 10.1337C15.3138 9.58 14.2413 9.25 13 9.25C10.9675 9.25 9.25 10.9675 9.25 13C9.25 15.0325 10.9675 16.75 13 16.75Z" fill="white"/>
</svg>
