<svg width="50" height="50" viewBox="0 0 50 50" fill="none" xmlns="http://www.w3.org/2000/svg">
<path d="M25 50C20.4753 50 16.2923 48.8851 12.4512 46.6553C8.61003 44.4255 5.57454 41.39 3.34473 37.5488C1.11491 33.7077 0 29.5247 0 25C0 20.4753 1.11491 16.2923 3.34473 12.4512C5.57454 8.61003 8.61003 5.57454 12.4512 3.34473C16.2923 1.11491 20.4753 0 25 0C29.5247 0 33.7077 1.11491 37.5488 3.34473C41.39 5.57454 44.4255 8.61003 46.6553 12.4512C48.8851 16.2923 50 20.4753 50 25C50 29.5247 48.8851 33.7077 46.6553 37.5488C44.4255 41.39 41.39 44.4255 37.5488 46.6553C33.7077 48.8851 29.5247 50 25 50ZM28.125 43.457V37.5H15.625L14.209 40.332C17.4642 42.6107 21.0612 43.75 25 43.75C25.9766 43.75 27.0182 43.6523 28.125 43.457ZM18.75 31.25H28.125V12.5L18.75 31.25ZM6.25 25C6.25 28.5482 7.19401 31.8522 9.08203 34.9121L23.3887 6.34766C18.571 6.73828 14.5101 8.72396 11.2061 12.3047C7.90202 15.8854 6.25 20.1172 6.25 25ZM34.375 8.78906V41.2109C37.2396 39.5508 39.5182 37.2884 41.2109 34.4238C42.9036 31.5592 43.75 28.418 43.75 25C43.75 21.582 42.9036 18.4408 41.2109 15.5762C39.5182 12.7116 37.2396 10.4492 34.375 8.78906Z" fill="white"/>
</svg>
